<svg width="130" height="144" viewBox="0 0 450 100" class="css-1j8o68f" style="overflow: unset; height: 50px; display: block;}">
            <defs id="SvgjsDefs3114">
              <linearGradient id="SvgjsLinearGradient3123">
                <stop id="SvgjsStop3124" stop-color="#00ff8f" offset="0"></stop>
                <stop id="SvgjsStop3125" stop-color="#00a1ff" offset="1"></stop>
              </linearGradient>
              <linearGradient id="SvgjsLinearGradient3126">
                <stop id="SvgjsStop3127" stop-color="#00ff8f" offset="0"></stop>
                <stop id="SvgjsStop3128" stop-color="#00a1ff" offset="1"></stop>
              </linearGradient>
              <linearGradient id="SvgjsLinearGradient3129">
                <stop id="SvgjsStop3130" stop-color="#00ff8f" offset="0"></stop>
                <stop id="SvgjsStop3131" stop-color="#00a1ff" offset="1"></stop>
              </linearGradient>
              <linearGradient id="SvgjsLinearGradient3132">
                <stop id="SvgjsStop3133" stop-color="#00ff8f" offset="0"></stop>
                <stop id="SvgjsStop3134" stop-color="#00a1ff" offset="1"></stop>
              </linearGradient>
            </defs>
            <g id="SvgjsG3115" featurekey="symbolContainer" transform="matrix(0.7181758491234574,0,0,0.7181758491234574,306,0)" fill="url(#SvgjsLinearGradient3123)">
              <path xmlns="http://www.w3.org/2000/svg" d="M100.254 0C44.974 0 0 44.974 0 100.254s44.974 100.254 100.254 100.254c55.28 0 100.254-44.974 100.254-100.254S155.534 0 100.254 0zm0 195.508C47.731 195.508 5 152.777 5 100.254S47.731 5 100.254 5s95.254 42.73 95.254 95.254-42.731 95.254-95.254 95.254z"></path>
            </g>
            <g id="SvgjsG3116" featurekey="monogramFeature-0" transform="matrix(1.3484430691203928,0,0,1.3484430691203928,339.24686093532506,14.195005622117016)" fill="url(#SvgjsLinearGradient3126)">
              <path d="M48.46 32.482 c2.867 2.9083 4.4154 6.6342 4.3601 10.491 c-0.06867 4.7744 -2.3699 9.1308 -6.48 12.268 c-4.2812 3.2669 -10.306 4.9937 -17.425 4.9937 c-13.586 0 -20.424 -0.2001 -20.491 -0.20203 l-3.416 -0.10242 l0 -34.119 l23.907 0 c10.718 0 16.544 3.6275 19.544 6.6708 z M28.915 53.1912 c11.546 0 16.789 -5.1829 16.862 -10.319 c0.028242 -1.985 -0.77886 -3.868 -2.3339 -5.4458 c-2.9067 -2.9487 -8.0664 -4.5723 -14.529 -4.5723 l-16.864 0 l0 20.211 c3.2701 0.056894 8.889 0.12598 16.864 0.12598 z"></path>
            </g>
            <g id="SvgjsG3117" featurekey="nameFeature-0" transform="matrix(0.9593156914787109,0,0,0.9593156914787109,-3.202482419389313,31.20639317548467)" fill="url(#SvgjsLinearGradient3129)">
              <path d="M32.306 21.654 c1.9114 1.9388 2.9436 4.4228 2.9067 6.994 c-0.04578 3.1829 -1.58 6.0872 -4.32 8.1784 c-2.8541 2.1779 -6.8708 3.3291 -11.616 3.3291 c-9.0576 0 -13.616 -0.1334 -13.661 -0.13469 l-2.2774 -0.06828 l0 -22.746 l15.938 0 c7.1456 0 11.03 2.4183 13.03 4.4472 z M19.277 35.4608 c7.6972 0 11.192 -3.4552 11.242 -6.8792 c0.018828 -1.3234 -0.51924 -2.5787 -1.5559 -3.6305 c-1.9378 -1.9658 -5.3776 -3.0482 -9.686 -3.0482 l-11.243 0 l0 13.474 c2.18 0.03793 5.926 0.083984 11.243 0.083984 z M54.271 15.421 l18.353 24.38 l-5.9015 0 l-5.132 -6.7948 l-14.639 0 l-5.0572 6.7948 l-5.8354 0 z M50.472 28.311 l7.5966 0 l-3.7984 -5.0644 z M83.036 22.009 c-0.43632 0.24117 -0.88236 0.64612 -0.88236 1.8193 c0 0.91448 0.29558 1.4144 1.0547 1.7822 c0.76772 0.37195 1.6239 0.39914 1.6671 0.4002 l17.067 0.06672 c2.9656 0 7.3912 1.8316 7.3912 6.8776 s-4.1128 6.8776 -6.8776 6.8776 l-24.997 0 l0 -4.6954 l24.977 0 c0.2048 -0.0070704 0.81636 -0.08422 1.3204 -0.36305 c0.43656 -0.24144 0.88256 -0.64636 0.88256 -1.8193 c0 -0.91448 -0.29558 -1.4144 -1.0547 -1.7822 c-0.7654 -0.37094 -1.6208 -0.39894 -1.6686 -0.40024 l-17.056 -0.07586 l0 0.0091406 c-2.975 0 -7.4008 -1.8316 -7.4008 -6.8776 s4.1128 -6.8776 6.8776 -6.8776 l24.997 0 l0 4.6954 l-24.976 0 c-0.20457 0.0070704 -0.81668 0.08422 -1.321 0.36305 z M143.198 17.234 l4.6951 0 l0 22.815 l-4.6951 0 l0 -9.0599 l-22.484 0 l0 9.0599 l-4.6954 0 l0 -22.815 l4.6954 0 l0 9.0599 l22.484 0 l0 -9.0599 z M186.37400000000002 24.085 c0 2.0163 -0.65756 3.518 -1.6228 4.5964 c0.97048 1.0675 1.6226 2.5284 1.6226 4.4636 c0 5.046 -4.1128 6.8776 -6.8776 6.8776 l-24.997 0 l0 -22.815 l24.474 0 c2.975 0 7.4008 1.8316 7.4008 6.8776 z M180.79600000000002 34.9636 c0.43632 -0.24144 0.88232 -0.64636 0.88204 -1.8193 c0 -0.94328 -0.31938 -1.4539 -1.1389 -1.8214 c-0.745 -0.33402 -1.5585 -0.36098 -1.5661 -0.36098 l-19.779 0 l0 4.3645 l20.281 0 c0.2048 -0.0067968 0.81664 -0.083944 1.3207 -0.36277 z M180.79600000000002 25.904 c0.43632 -0.24144 0.88232 -0.64608 0.88232 -1.8193 c0 -0.94328 -0.31938 -1.4539 -1.1389 -1.8214 c-0.745 -0.33402 -1.5585 -0.36098 -1.5661 -0.36098 l-19.779 0 l0 4.3645 l20.281 0 c0.2048 -0.0067968 0.81664 -0.083944 1.3207 -0.36277 z M197.114 35.238 l27.18 0 l0 4.6954 l-31.875 0 l0 -22.815 l4.6954 0 l0 18.119 z M260.889 19.299 c1.8355 1.8198 1.8204 4.452 1.7971 8.4364 c-0.0018359 0.29664 -0.0033984 0.604 -0.0046876 0.92236 c-0.0089064 2.3647 -0.015195 4.0732 -0.26344 5.514 c-0.21137 1.2284 -0.69948 2.9991 -2.4872 4.1908 c-2.2642 1.5093 -5.6464 1.5434 -13.056 1.6174 c-1.1572 0.011524 -2.2245 0.020156 -3.2091 0.020156 c-5.8708 0 -8.822 -0.31074 -10.708 -2.1844 c-1.964 -1.9514 -1.953 -4.8252 -1.9368 -9.1752 c0.018047 -4.8536 0.029024 -7.7832 2.4894 -9.602 c2.1227 -1.569 5.2056 -1.6103 11.96 -1.7011 l1.3479 -0.018555 c8.4176 -0.12031 11.902 -0.17027 14.071 1.9805 z M258.023 27.708 c0.013086 -2.2896 0.026914 -4.6576 -0.41728 -5.0976 c-0.55112 -0.54644 -3.0246 -0.67276 -6.3168 -0.67276 c-1.3547 0 -2.8484 0.021445 -4.4036 0.043672 l-1.3521 0.018555 c-4.8388 0.064884 -8.3348 0.11195 -9.25 0.78812 c-0.5776 0.42692 -0.587 2.9488 -0.59796 5.8692 c-0.010195 2.7118 -0.019883 5.2732 0.56032 5.8496 c0.9108 0.90508 5.8276 0.85564 10.583 0.80856 c5.4604 -0.054412 9.4056 -0.093908 10.516 -0.8342 c0.65372 -0.4358 0.66208 -2.7032 0.67384 -5.8416 c0.0010547 -0.32148 0.0028906 -0.632 0.0047264 -0.93176 z M300.939 28.789 c-0.039766 2.7314 -0.0003125 8.8604 0.00046876 8.9216 l0.01543 2.3398 l-15.796 0 c-4.7468 0 -8.7176 -1.0623 -11.483 -3.0715 c-2.7712 -2.0134 -4.2972 -4.934 -4.2972 -8.224 c0 -2.7283 1.0293 -5.1928 2.9771 -7.126 c2.7887 -2.7683 7.2208 -4.2116 12.82 -4.1692 c3.4152 0.025117 13.333 0.00027344 13.433 0 l2.3244 -0.0060156 l0.011758 4.6492 l-2.3244 0.0060156 c-0.1002 0.00027344 -10.041 0.025391 -13.479 0 c-4.2752 -0.03375 -7.648 0.9702 -9.5112 2.8196 c-1.0641 1.0562 -1.6035 2.3435 -1.6035 3.8266 c0 4.0992 4.2652 6.646 11.132 6.646 l11.12 0 c-0.0049608 -1.2739 -0.0086328 -2.879 -0.0049608 -4.3216 l-8.9542 0 l0 -4.6491 l13.654 0 z"></path>
            </g>
            <g id="SvgjsG3118" featurekey="sloganFeature-0" transform="matrix(0.6880860688950691,0,0,0.6880860688950691,137.8515156746992,84.69416834637369)" fill="url(#SvgjsLinearGradient3132)">
              <path d="M16.153 10.8272 c0.95568 0.96942 1.4718 2.2114 1.4534 3.497 c-0.02289 1.5915 -0.78998 3.0436 -2.16 4.0892 c-1.4271 1.089 -3.4354 1.6646 -5.8082 1.6646 c-4.5288 0 -6.808 -0.0667 -6.8304 -0.067344 l-1.1387 -0.03414 l0 -11.373 l7.9691 0 c3.5728 0 5.5148 1.2092 6.5148 2.2236 z M9.6384 17.7304 c3.8486 0 5.5962 -1.7276 5.6208 -3.4396 c0.009414 -0.66168 -0.25962 -1.2893 -0.77796 -1.8153 c-0.9689 -0.9829 -2.6888 -1.5241 -4.843 -1.5241 l-5.6214 0 l0 6.737 c1.09 0.018965 2.963 0.041992 5.6214 0.041992 z M40.599000000000004 17.557 l1.162 -0.017422 l0.034786 2.3242 l-1.1621 0.017402 c-0.18088 0.002754 -0.38542 0.0058984 -0.6087 0.0058984 c-1.614 0 -4.2026 -0.16008 -5.8378 -1.7712 c-0.72798 -0.71726 -1.1865 -1.629 -1.3698 -2.72 l-4.2054 0 l-0.016602 4.4896 l-2.3246 -0.0086328 l0.037402 -10.127 l0 -1.1635 l0.0043164 0 l0 -0.0043164 l1.1612 0.0043164 l10.951 0 c1.4728 0 3.6638 0.90678 3.6638 3.4048 c0 2.4982 -2.0362 3.405 -3.4048 3.405 l-3.4826 0 c0.12543 0.4252 0.32842 0.77924 0.61734 1.064 c1.1685 1.151 3.608 1.1146 4.7804 1.0969 z M28.6334 13.0714 l10.041 -0.000019531 c0.10148 -0.0035352 0.40426 -0.041718 0.6538 -0.17971 c0.21608 -0.11955 0.43686 -0.32006 0.43686 -0.90076 c0 -0.46692 -0.15799 -0.71972 -0.56382 -0.90166 c-0.36882 -0.16531 -0.77152 -0.17865 -0.77532 -0.17865 l-9.7922 0 l0 2.1608 z M66.691 10.9512 l-13.59 0.000019531 l0 2.1863 l9.0642 0.03375 l-0.0086328 2.3478 l-9.0556 -0.03375 l0 2.1782 l13.59 0 l0 2.3477 l-15.938 0 l0 -11.407 l15.938 0 l0 2.3476 z M83.50139999999999 7.711 l9.1766 12.19 l-2.9508 0 l-2.566 -3.3974 l-7.3197 0 l-2.5286 3.3974 l-2.9177 0 z M81.6022 14.1556 l3.7983 0 l-1.8992 -2.5322 z M108.366 14.0628 l7.9688 -5.3126 l0 11.25 l-2.3477 0 l0 -6.8631 l-5.621 3.7472 l-5.621 -3.7472 l0 6.8631 l-2.3477 0 l0 -11.25 z M127.768 11.0046 c-0.21816 0.12059 -0.44118 0.32306 -0.44118 0.90966 c0 0.45724 0.14779 0.70718 0.52734 0.89108 c0.38386 0.18598 0.81196 0.19957 0.83354 0.2001 l8.5334 0.03336 c1.4828 0 3.6956 0.9158 3.6956 3.4388 s-2.0564 3.4388 -3.4388 3.4388 l-12.499 0 l0 -2.3477 l12.488 0 c0.1024 -0.0035352 0.40818 -0.04211 0.66022 -0.18152 c0.21828 -0.12072 0.44128 -0.32318 0.44128 -0.90964 c0 -0.45724 -0.14779 -0.70718 -0.52734 -0.89108 c-0.3827 -0.18547 -0.81038 -0.19947 -0.8343 -0.20012 l-8.5278 -0.03793 l0 0.0045703 c-1.4875 0 -3.7004 -0.9158 -3.7004 -3.4388 s2.0564 -3.4388 3.4388 -3.4388 l12.499 0 l0 2.3477 l-12.488 0 c-0.10229 0.0035352 -0.40834 0.04211 -0.6605 0.18152 z M164.045 10.8272 c0.95568 0.96942 1.4718 2.2114 1.4534 3.497 c-0.02289 1.5915 -0.78998 3.0436 -2.16 4.0892 c-1.4271 1.089 -3.4354 1.6646 -5.8082 1.6646 c-4.5288 0 -6.808 -0.0667 -6.8304 -0.067344 l-1.1387 -0.03414 l0 -11.373 l7.9691 0 c3.5728 0 5.5148 1.2092 6.5148 2.2236 z M157.5304 17.7304 c3.8486 0 5.5962 -1.7276 5.6208 -3.4396 c0.009414 -0.66168 -0.25962 -1.2893 -0.77796 -1.8153 c-0.9689 -0.9829 -2.6888 -1.5241 -4.843 -1.5241 l-5.6214 0 l0 6.737 c1.09 0.018965 2.963 0.041992 5.6214 0.041992 z M190.101 10.9512 l-13.59 0.000019531 l0 2.1863 l9.0642 0.03375 l-0.0086328 2.3478 l-9.0556 -0.03375 l0 2.1782 l13.59 0 l0 2.3477 l-15.938 0 l0 -11.407 l15.938 0 l0 2.3476 z M212.935 8.662 l2.9056 0 l-9.017 12.023 l-9.018 -12.023 l2.9058 0 l6.1122 8.1492 z"></path>
            </g>
          </svg>